<svg width="624" height="80" viewBox="0 0 624 80" fill="none" xmlns="http://www.w3.org/2000/svg">
<path d="M18.1023 72H2.28418L26.3865 2.18184H45.4092L69.4774 72H53.6592L36.1706 18.1364H35.6251L18.1023 72ZM17.1137 44.5568H54.4774V56.0795H17.1137V44.5568ZM121.006 2.18184H135.767V47.5227C135.767 52.6136 134.551 57.0682 132.119 60.8864C129.71 64.7046 126.335 67.6819 121.994 69.8182C117.654 71.9319 112.597 72.9887 106.824 72.9887C101.029 72.9887 95.9601 71.9319 91.6193 69.8182C87.2785 67.6819 83.9033 64.7046 81.4945 60.8864C79.0853 57.0682 77.8808 52.6136 77.8808 47.5227V2.18184H92.6425V46.2614C92.6425 48.9205 93.2217 51.2841 94.3809 53.3523C95.5625 55.4205 97.2217 57.0455 99.3577 58.2273C101.494 59.4091 103.983 60 106.824 60C109.687 60 112.176 59.4091 114.29 58.2273C116.426 57.0455 118.074 55.4205 119.233 53.3523C120.414 51.2841 121.006 48.9205 121.006 46.2614V2.18184ZM194.207 24.75C193.73 23.0909 193.06 21.625 192.196 20.3523C191.332 19.0568 190.275 17.9659 189.026 17.0795C187.798 16.1705 186.39 15.4773 184.798 15C183.23 14.5227 181.491 14.2841 179.582 14.2841C176.014 14.2841 172.878 15.1705 170.174 16.9432C167.491 18.7159 165.401 21.2955 163.901 24.6819C162.401 28.0455 161.65 32.1591 161.65 37.0227C161.65 41.8864 162.39 46.0227 163.866 49.4319C165.344 52.8409 167.434 55.4432 170.139 57.2387C172.844 59.0114 176.037 59.8978 179.718 59.8978C183.06 59.8978 185.912 59.3068 188.275 58.125C190.662 56.9205 192.48 55.2273 193.73 53.0455C195.003 50.8636 195.639 48.2841 195.639 45.3068L198.639 45.75H180.639V34.6364H209.855V43.4319C209.855 49.5682 208.56 54.8409 205.969 59.25C203.378 63.6364 199.81 67.0227 195.264 69.4091C190.718 71.7727 185.514 72.9546 179.65 72.9546C173.105 72.9546 167.355 71.5114 162.401 68.625C157.446 65.7159 153.582 61.5909 150.81 56.25C148.06 50.8864 146.685 44.5227 146.685 37.1591C146.685 31.5 147.503 26.4546 149.139 22.0227C150.798 17.5682 153.117 13.7955 156.094 10.7046C159.071 7.61366 162.537 5.26138 166.491 3.64775C170.446 2.03411 174.73 1.22729 179.344 1.22729C183.298 1.22729 186.98 1.80684 190.39 2.96593C193.798 4.1023 196.821 5.71593 199.458 7.80684C202.117 9.89778 204.287 12.3864 205.969 15.2727C207.65 18.1364 208.73 21.2955 209.207 24.75H194.207ZM220.943 72V2.18184H267.989V14.3523H235.705V30.9887H265.568V43.1591H235.705V59.8295H268.125V72H220.943ZM338.122 2.18184V72H325.372L294.997 28.0568H294.486V72H279.725V2.18184H292.679L322.815 46.0909H323.429V2.18184H338.122ZM350.318 72V2.18184H397.364V14.3523H365.079V30.9887H394.943V43.1591H365.079V59.8295H397.5V72H350.318ZM431.318 72V2.18184H458.864C464.159 2.18184 468.671 3.19321 472.398 5.21593C476.125 7.21593 478.966 10 480.921 13.5682C482.898 17.1136 483.887 21.2046 483.887 25.8409C483.887 30.4773 482.887 34.5682 480.887 38.1136C478.887 41.6591 475.989 44.4205 472.193 46.3978C468.421 48.375 463.852 49.3636 458.489 49.3636H440.932V37.5341H456.102C458.943 37.5341 461.284 37.0455 463.125 36.0682C464.989 35.0682 466.375 33.6932 467.284 31.9432C468.216 30.1705 468.682 28.1364 468.682 25.8409C468.682 23.5227 468.216 21.5 467.284 19.7727C466.375 18.0227 464.989 16.6705 463.125 15.7159C461.262 14.7387 458.898 14.25 456.034 14.25H446.079V72H431.318ZM497.447 72H481.628L505.73 2.18184H524.753L548.821 72H533.003L515.515 18.1364H514.969L497.447 72ZM496.458 44.5568H533.821V56.0795H496.458V44.5568ZM557.225 72V2.18184H571.986V32.9659H572.906L598.031 2.18184H615.725L589.815 33.4432L616.031 72H598.372L579.247 43.2955L571.986 52.1591V72H557.225Z" fill="black"/>
</svg>
